<svg width="16" height="16" viewBox="0 0 16 16" fill="none" xmlns="http://www.w3.org/2000/svg">
<mask id="path-1-inside-1_316_7" fill="white">
<path d="M2.41147 5.41131C2.49183 5.33105 2.60076 5.28597 2.71433 5.28597C2.8279 5.28597 2.93683 5.33105 3.01718 5.41131L8.00004 10.3942L12.9829 5.41131C13.0221 5.3692 13.0694 5.33543 13.122 5.312C13.1746 5.28858 13.2313 5.27598 13.2889 5.27497C13.3464 5.27395 13.4036 5.28454 13.457 5.30609C13.5103 5.32765 13.5588 5.35973 13.5995 5.40043C13.6402 5.44112 13.6723 5.4896 13.6938 5.54297C13.7154 5.59633 13.726 5.65349 13.725 5.71103C13.7239 5.76858 13.7113 5.82533 13.6879 5.8779C13.6645 5.93047 13.6307 5.97779 13.5886 6.01702L8.3029 11.3027C8.22254 11.383 8.11361 11.4281 8.00004 11.4281C7.88647 11.4281 7.77754 11.383 7.69718 11.3027L2.41147 6.01702C2.33121 5.93666 2.28613 5.82774 2.28613 5.71416C2.28613 5.60059 2.33121 5.49166 2.41147 5.41131Z"/>
</mask>
<path d="M2.41147 5.41131L1.7048 4.70376L1.70392 4.70464L2.41147 5.41131ZM3.01718 5.41131L3.72429 4.7042L3.72385 4.70376L3.01718 5.41131ZM8.00004 10.3942L7.29293 11.1013L8.00004 11.8084L8.70715 11.1013L8.00004 10.3942ZM12.9829 5.41131L13.69 6.11841L13.7025 6.10594L13.7145 6.09303L12.9829 5.41131ZM13.5886 6.01702L12.9069 5.28541L12.894 5.29744L12.8815 5.30991L13.5886 6.01702ZM8.3029 11.3027L9.00957 12.0103L9.01001 12.0098L8.3029 11.3027ZM7.69718 11.3027L6.99008 12.0098L6.99052 12.0103L7.69718 11.3027ZM2.41147 6.01702L1.70392 6.72369L1.70436 6.72413L2.41147 6.01702ZM3.11814 6.11885C3.01099 6.22586 2.86576 6.28597 2.71433 6.28597V4.28597C2.33575 4.28597 1.97266 4.43624 1.7048 4.70376L3.11814 6.11885ZM2.71433 6.28597C2.5629 6.28597 2.41766 6.22586 2.31052 6.11885L3.72385 4.70376C3.45599 4.43624 3.0929 4.28597 2.71433 4.28597V6.28597ZM2.31008 6.11841L7.29293 11.1013L8.70715 9.68706L3.72429 4.7042L2.31008 6.11841ZM8.70715 11.1013L13.69 6.11841L12.2758 4.7042L7.29293 9.68706L8.70715 11.1013ZM13.7145 6.09303C13.6622 6.14917 13.5991 6.1942 13.529 6.22543L12.715 4.39857C12.5398 4.47665 12.3821 4.58923 12.2513 4.72959L13.7145 6.09303ZM13.529 6.22543C13.4589 6.25667 13.3833 6.27346 13.3065 6.27481L13.2712 4.27512C13.0794 4.27851 12.8903 4.32049 12.715 4.39857L13.529 6.22543ZM13.3065 6.27481C13.2298 6.27617 13.1536 6.26205 13.0824 6.23331L13.8315 4.37888C13.6536 4.30703 13.4631 4.27174 13.2712 4.27512L13.3065 6.27481ZM13.0824 6.23331C13.0113 6.20457 12.9466 6.1618 12.8924 6.10754L14.3066 4.69332C14.1709 4.55767 14.0094 4.45073 13.8315 4.37888L13.0824 6.23331ZM12.8924 6.10754C12.8381 6.05328 12.7953 5.98864 12.7666 5.91748L14.621 5.16845C14.5492 4.99056 14.4423 4.82897 14.3066 4.69332L12.8924 6.10754ZM12.7666 5.91748C12.7379 5.84633 12.7238 5.77011 12.7251 5.69339L14.7248 5.72868C14.7282 5.53686 14.6929 5.34633 14.621 5.16845L12.7666 5.91748ZM12.7251 5.69339C12.7265 5.61667 12.7433 5.54101 12.7745 5.47091L14.6013 6.2849C14.6794 6.10965 14.7214 5.92048 14.7248 5.72868L12.7251 5.69339ZM12.7745 5.47091C12.8057 5.40081 12.8507 5.33773 12.9069 5.28541L14.2703 6.74863C14.4107 6.61785 14.5233 6.46013 14.6013 6.2849L12.7745 5.47091ZM12.8815 5.30991L7.59579 10.5956L9.01001 12.0098L14.2957 6.72413L12.8815 5.30991ZM7.59623 10.5952C7.70338 10.4882 7.84861 10.4281 8.00004 10.4281V12.4281C8.37861 12.4281 8.74171 12.2778 9.00957 12.0103L7.59623 10.5952ZM8.00004 10.4281C8.15147 10.4281 8.29671 10.4882 8.40385 10.5952L6.99052 12.0103C7.25838 12.2778 7.62147 12.4281 8.00004 12.4281V10.4281ZM8.40429 10.5956L3.11858 5.30991L1.70436 6.72413L6.99008 12.0098L8.40429 10.5956ZM3.11902 5.31035C3.22603 5.4175 3.28613 5.56274 3.28613 5.71416H1.28613C1.28613 6.09274 1.4364 6.45583 1.70392 6.72369L3.11902 5.31035ZM3.28613 5.71416C3.28613 5.86559 3.22603 6.01083 3.11902 6.11797L1.70392 4.70464C1.4364 4.9725 1.28613 5.33559 1.28613 5.71416H3.28613Z" fill="#0B0B0B" mask="url(#path-1-inside-1_316_7)"/>
</svg>
