<svg width="130" height="130" viewBox="0 0 130 130" fill="none" xmlns="http://www.w3.org/2000/svg">
<rect width="130" height="130" rx="5" fill="white"/>
<rect x="7.78467" y="7.78442" width="114.431" height="114.431" rx="10" fill="#0B0B0B"/>
<path d="M39.6335 37.2371C39.6952 36.4363 40.0562 35.6886 40.6443 35.1439C41.2324 34.5992 42.0041 34.2978 42.8044 34.3002L52.3168 34.3002L52.3168 31.1183C52.3168 27.7427 53.6531 24.5054 56.0317 22.1186C58.4103 19.7317 61.6363 18.3907 65.0001 18.3907C68.364 18.3907 71.59 19.7317 73.9686 22.1186C76.3472 24.5054 77.6834 27.7427 77.6834 31.1183V34.3002H87.1959C87.9962 34.2978 88.7678 34.5992 89.3559 35.1439C89.944 35.6886 90.3051 36.4363 90.3667 37.2371L93.2649 75.1747C93.3322 76.0491 93.2186 76.928 92.9314 77.7562C92.6442 78.5845 92.1895 79.3442 91.5958 79.9878C91.0021 80.6313 90.2823 81.1448 89.4815 81.496C88.6807 81.8472 87.8162 82.0284 86.9422 82.0285L43.058 82.0285C42.1844 82.0284 41.3202 81.8472 40.5196 81.4962C39.719 81.1452 38.9994 80.6321 38.4057 79.9889C37.8121 79.3457 37.3573 78.5863 37.0699 77.7584C36.7824 76.9305 36.6686 76.052 36.7354 75.1779L39.6335 37.2371ZM71.3418 31.1183C71.3418 29.4305 70.6736 27.8119 69.4844 26.6184C68.2951 25.425 66.682 24.7545 65.0001 24.7545C63.3182 24.7545 61.7052 25.425 60.5159 26.6184C59.3266 27.8119 58.6585 29.4305 58.6585 31.1183L58.6585 34.3002H71.3418V31.1183ZM86.9422 75.6647L84.2597 40.6639H77.6834V47.0277C77.6834 47.8716 77.3494 48.6809 76.7547 49.2777C76.1601 49.8744 75.3536 50.2096 74.5126 50.2096C73.6717 50.2096 72.8651 49.8744 72.2705 49.2777C71.6759 48.6809 71.3418 47.8716 71.3418 47.0277V40.6639L58.6585 40.6639V47.0277C58.6585 47.8716 58.3244 48.6809 57.7298 49.2777C57.1351 49.8744 56.3286 50.2096 55.4877 50.2096C54.6467 50.2096 53.8402 49.8744 53.2456 49.2777C52.6509 48.6809 52.3168 47.8716 52.3168 47.0277V40.6639H45.7406L43.0549 75.6647L86.9422 75.6647Z" fill="white"/>
<path d="M31.592 99.215C31.5404 98.7322 31.3229 98.3562 30.9396 98.0872C30.56 97.8181 30.0661 97.6836 29.4579 97.6836C29.0303 97.6836 28.6636 97.7481 28.3577 97.8771C28.0518 98.0061 27.8177 98.1811 27.6555 98.4023C27.4934 98.6234 27.4104 98.8759 27.4067 99.1597C27.4067 99.3956 27.4602 99.6002 27.5671 99.7734C27.6777 99.9466 27.8269 100.094 28.0149 100.216C28.2029 100.334 28.4111 100.433 28.6397 100.514C28.8682 100.595 29.0985 100.664 29.3307 100.719L30.3923 100.984C30.8198 101.084 31.2308 101.218 31.6252 101.388C32.0232 101.557 32.3789 101.771 32.6922 102.029C33.0092 102.287 33.2598 102.599 33.4441 102.963C33.6284 103.328 33.7205 103.756 33.7205 104.246C33.7205 104.91 33.551 105.494 33.2119 105.999C32.8728 106.5 32.3826 106.893 31.7413 107.176C31.1036 107.456 30.3314 107.597 29.4247 107.597C28.5438 107.597 27.779 107.46 27.1303 107.187C26.4853 106.915 25.9803 106.517 25.6154 105.993C25.2542 105.47 25.0589 104.832 25.0294 104.08L27.0474 104.08C27.0769 104.475 27.1985 104.803 27.4123 105.064C27.6261 105.326 27.9043 105.521 28.2471 105.65C28.5936 105.779 28.9806 105.844 29.4081 105.844C29.8541 105.844 30.2448 105.778 30.5802 105.645C30.9193 105.509 31.1847 105.321 31.3764 105.081C31.568 104.838 31.6657 104.554 31.6694 104.23C31.6657 103.935 31.5791 103.691 31.4095 103.5C31.24 103.304 31.0023 103.142 30.6963 103.013C30.3941 102.881 30.0403 102.763 29.6348 102.659L28.3466 102.328C27.4141 102.088 26.677 101.725 26.1351 101.239C25.597 100.748 25.328 100.098 25.328 99.2869C25.328 98.6198 25.5086 98.0355 25.8698 97.5343C26.2347 97.033 26.7304 96.6442 27.357 96.3677C27.9836 96.0876 28.6931 95.9475 29.4855 95.9475C30.2891 95.9475 30.993 96.0876 31.5975 96.3677C32.2057 96.6442 32.683 97.0293 33.0295 97.5232C33.3759 98.0134 33.5547 98.5774 33.5657 99.215L31.592 99.215Z" fill="white"/>
<path d="M35.5492 107.425L35.5492 96.1023L37.6003 96.1023L37.6003 100.896L42.8471 100.896L42.8471 96.1023L44.9037 96.1023L44.9038 107.425L42.8471 107.425L42.8471 102.615L37.6003 102.615L37.6003 107.425L35.5492 107.425Z" fill="white"/>
<path d="M57.2521 101.764C57.2521 102.984 57.0236 104.029 56.5666 104.899C56.1132 105.765 55.494 106.428 54.7089 106.889C53.9275 107.35 53.0411 107.58 52.0496 107.58C51.0581 107.58 50.1699 107.35 49.3848 106.889C48.6034 106.424 47.9842 105.759 47.5271 104.893C47.0738 104.023 46.8471 102.98 46.8471 101.764C46.8471 100.544 47.0738 99.5007 47.5271 98.6345C47.9842 97.7646 48.6034 97.0994 49.3848 96.6386C50.1698 96.1779 51.0581 95.9475 52.0496 95.9475C53.0411 95.9475 53.9275 96.1779 54.7089 96.6386C55.494 97.0994 56.1132 97.7646 56.5666 98.6345C57.0236 99.5007 57.2521 100.544 57.2521 101.764ZM55.1899 101.764C55.1899 100.905 55.0554 100.181 54.7863 99.591C54.5209 98.9975 54.1524 98.5497 53.6806 98.2475C53.2088 97.9416 52.6651 97.7886 52.0496 97.7886C51.4341 97.7886 50.8904 97.9416 50.4186 98.2475C49.9469 98.5497 49.5764 98.9975 49.3074 99.591C49.042 100.181 48.9093 100.905 48.9093 101.764C48.9093 102.623 49.042 103.349 49.3074 103.942C49.5764 104.532 49.9469 104.98 50.4186 105.286C50.8904 105.588 51.4341 105.739 52.0496 105.739C52.6651 105.739 53.2088 105.588 53.6806 105.286C54.1524 104.98 54.5209 104.532 54.7863 103.942C55.0554 103.349 55.1899 102.623 55.1899 101.764Z" fill="white"/>
<path d="M59.1913 107.425L59.1913 96.1023L63.4374 96.1023C64.3072 96.1023 65.037 96.2645 65.6268 96.5889C66.2202 96.9132 66.668 97.3592 66.9702 97.9268C67.2762 98.4907 67.4291 99.1321 67.4291 99.8508C67.4291 100.577 67.2762 101.222 66.9702 101.786C66.6643 102.35 66.2128 102.794 65.6157 103.118C65.0186 103.439 64.2833 103.599 63.4097 103.599L60.5956 103.599L60.5956 101.913L63.1333 101.913C63.6419 101.913 64.0584 101.825 64.3828 101.648C64.7071 101.471 64.9467 101.227 65.1015 100.918C65.26 100.608 65.3393 100.253 65.3393 99.8508C65.3393 99.4491 65.26 99.0952 65.1015 98.7893C64.9467 98.4834 64.7053 98.2456 64.3773 98.0761C64.0529 97.9029 63.6346 97.8162 63.1222 97.8162L61.2425 97.8162L61.2425 107.425L59.1913 107.425Z" fill="white"/>
<path d="M69.2107 107.425L69.2107 96.1023L73.4568 96.1023C74.3266 96.1023 75.0564 96.2645 75.6462 96.5889C76.2396 96.9132 76.6874 97.3592 76.9896 97.9268C77.2956 98.4907 77.4485 99.1321 77.4485 99.8508C77.4485 100.577 77.2956 101.222 76.9896 101.786C76.6837 102.35 76.2322 102.794 75.6351 103.118C75.038 103.439 74.3027 103.599 73.4292 103.599L70.615 103.599L70.615 101.913L73.1527 101.913C73.6614 101.913 74.0779 101.825 74.4022 101.648C74.7266 101.471 74.9661 101.227 75.1209 100.918C75.2794 100.608 75.3587 100.253 75.3587 99.8508C75.3587 99.4491 75.2794 99.0952 75.1209 98.7893C74.9661 98.4834 74.7247 98.2456 74.3967 98.0761C74.0723 97.9029 73.654 97.8162 73.1417 97.8162L71.2619 97.8162L71.2619 107.425L69.2107 107.425Z" fill="white"/>
<path d="M81.2813 96.1023L81.2813 107.425L79.2302 107.425L79.2302 96.1023L81.2813 96.1023Z" fill="white"/>
<path d="M92.8073 96.1023L92.8073 107.425L90.9828 107.425L85.6476 99.7126L85.5536 99.7126L85.5536 107.425L83.5025 107.425L83.5025 96.1023L85.338 96.1023L90.6677 103.82L90.7672 103.82L90.7672 96.1023L92.8073 96.1023Z" fill="white"/>
<path d="M102.628 99.7181C102.536 99.4196 102.408 99.1524 102.246 98.9165C102.088 98.6769 101.896 98.4723 101.671 98.3028C101.45 98.1332 101.196 98.0061 100.908 97.9213C100.621 97.8328 100.307 97.7886 99.9684 97.7886C99.3602 97.7886 98.8184 97.9416 98.3429 98.2475C97.8675 98.5534 97.4933 99.0031 97.2206 99.5965C96.9515 100.186 96.817 100.905 96.817 101.753C96.817 102.608 96.9515 103.332 97.2206 103.925C97.4897 104.519 97.8638 104.97 98.3429 105.28C98.8221 105.586 99.3786 105.739 100.013 105.739C100.588 105.739 101.085 105.628 101.505 105.407C101.929 105.186 102.255 104.873 102.484 104.467C102.712 104.058 102.827 103.579 102.827 103.03L103.291 103.102L100.217 103.102L100.217 101.498L104.812 101.498L104.812 102.858C104.812 103.828 104.605 104.666 104.192 105.374C103.779 106.082 103.212 106.627 102.489 107.01C101.767 107.39 100.938 107.58 100.002 107.58C98.9585 107.58 98.0425 107.346 97.2538 106.878C96.4687 106.406 95.855 105.737 95.4127 104.871C94.9741 104.001 94.7548 102.969 94.7548 101.775C94.7548 100.861 94.8838 100.044 95.1418 99.3256C95.4035 98.6069 95.7684 97.9968 96.2365 97.4956C96.7046 96.9906 97.2538 96.6073 97.884 96.3456C98.5143 96.0802 99.1999 95.9475 99.9407 95.9475C100.567 95.9475 101.152 96.0397 101.693 96.224C102.235 96.4046 102.716 96.6626 103.136 96.998C103.56 97.3334 103.908 97.7315 104.181 98.1922C104.454 98.6529 104.633 99.1616 104.718 99.7181L102.628 99.7181Z" fill="white"/>
<path d="M33.2129 116.766L32.1183 116.766L34.1114 111.105L35.3774 111.105L37.3733 116.766L36.2786 116.766L34.7665 112.266L34.7223 112.266L33.2129 116.766ZM33.2489 114.547L36.2344 114.547L36.2344 115.37L33.2489 115.37L33.2489 114.547Z" fill="white"/>
<path d="M41.1045 112.661C41.0787 112.42 40.97 112.232 40.7783 112.097C40.5885 111.963 40.3415 111.896 40.0374 111.896C39.8237 111.896 39.6403 111.928 39.4873 111.992C39.3344 112.057 39.2174 112.144 39.1363 112.255C39.0552 112.366 39.0137 112.492 39.0119 112.634C39.0119 112.752 39.0386 112.854 39.092 112.941C39.1473 113.027 39.222 113.101 39.3159 113.162C39.4099 113.221 39.5141 113.27 39.6283 113.311C39.7426 113.352 39.8578 113.386 39.9739 113.413L40.5046 113.546C40.7184 113.596 40.9239 113.663 41.1211 113.748C41.3201 113.833 41.4979 113.939 41.6546 114.068C41.8131 114.197 41.9384 114.353 42.0305 114.536C42.1227 114.718 42.1688 114.932 42.1688 115.177C42.1688 115.509 42.084 115.801 41.9144 116.053C41.7449 116.304 41.4998 116.5 41.1791 116.642C40.8603 116.782 40.4742 116.852 40.0209 116.852C39.5804 116.852 39.198 116.784 38.8736 116.648C38.5511 116.511 38.2987 116.312 38.1162 116.05C37.9356 115.789 37.8379 115.47 37.8232 115.094L38.8322 115.094C38.8469 115.291 38.9077 115.455 39.0146 115.586C39.1215 115.717 39.2607 115.815 39.432 115.879C39.6053 115.944 39.7988 115.976 40.0126 115.976C40.2356 115.976 40.4309 115.943 40.5986 115.876C40.7682 115.808 40.9008 115.714 40.9967 115.594C41.0925 115.473 41.1413 115.331 41.1432 115.169C41.1413 115.021 41.098 114.9 41.0133 114.804C40.9285 114.706 40.8096 114.625 40.6567 114.561C40.5055 114.494 40.3286 114.435 40.1259 114.384L39.4818 114.218C39.0156 114.098 38.647 113.916 38.3761 113.673C38.107 113.428 37.9725 113.103 37.9725 112.697C37.9725 112.364 38.0628 112.072 38.2434 111.821C38.4258 111.57 38.6737 111.376 38.987 111.238C39.3003 111.098 39.655 111.028 40.0513 111.028C40.453 111.028 40.805 111.098 41.1072 111.238C41.4113 111.376 41.65 111.569 41.8232 111.816C41.9965 112.061 42.0858 112.343 42.0914 112.661L41.1045 112.661Z" fill="white"/>
<path d="M46.0396 111.105L46.0396 116.766L45.014 116.766L45.014 111.105L46.0396 111.105Z" fill="white"/>
<path d="M46.9013 111.965L46.9013 111.105L51.4183 111.105L51.4183 111.965L49.6685 111.965L49.6685 116.766L48.6512 116.766L48.6512 111.965L46.9013 111.965Z" fill="white"/>
<path d="M57.2967 112.661C57.2709 112.42 57.1622 112.232 56.9705 112.097C56.7807 111.963 56.5337 111.896 56.2297 111.896C56.0159 111.896 55.8325 111.928 55.6796 111.992C55.5266 112.057 55.4096 112.144 55.3285 112.255C55.2474 112.366 55.2059 112.492 55.2041 112.634C55.2041 112.752 55.2308 112.854 55.2843 112.941C55.3395 113.027 55.4142 113.101 55.5082 113.162C55.6022 113.221 55.7063 113.27 55.8205 113.311C55.9348 113.352 56.05 113.386 56.1661 113.413L56.6968 113.546C56.9106 113.596 57.1161 113.663 57.3133 113.748C57.5123 113.833 57.6902 113.939 57.8468 114.068C58.0053 114.197 58.1306 114.353 58.2228 114.536C58.3149 114.718 58.361 114.932 58.361 115.177C58.361 115.509 58.2762 115.801 58.1067 116.053C57.9371 116.304 57.692 116.5 57.3713 116.642C57.0525 116.782 56.6664 116.852 56.2131 116.852C55.7726 116.852 55.3902 116.784 55.0659 116.648C54.7434 116.511 54.4909 116.312 54.3084 116.05C54.1278 115.789 54.0302 115.47 54.0154 115.094L55.0244 115.094C55.0392 115.291 55.1 115.455 55.2069 115.586C55.3137 115.717 55.4529 115.815 55.6243 115.879C55.7975 115.944 55.991 115.976 56.2048 115.976C56.4278 115.976 56.6231 115.943 56.7908 115.876C56.9604 115.808 57.0931 115.714 57.1889 115.594C57.2847 115.473 57.3336 115.331 57.3354 115.169C57.3336 115.021 57.2903 114.9 57.2055 114.804C57.1207 114.706 57.0018 114.625 56.8489 114.561C56.6978 114.494 56.5208 114.435 56.3181 114.384L55.674 114.218C55.2078 114.098 54.8392 113.916 54.5683 113.673C54.2992 113.428 54.1647 113.103 54.1647 112.697C54.1647 112.364 54.255 112.072 54.4356 111.821C54.618 111.57 54.8659 111.376 55.1792 111.238C55.4925 111.098 55.8473 111.028 56.2435 111.028C56.6452 111.028 56.9972 111.098 57.2995 111.238C57.6036 111.376 57.8422 111.569 58.0154 111.816C58.1887 112.061 58.2781 112.343 58.2836 112.661L57.2967 112.661Z" fill="white"/>
<path d="M59.2753 116.766L59.2753 111.105L60.3009 111.105L60.3009 113.502L62.9242 113.502L62.9242 111.105L63.9526 111.105L63.9526 116.766L62.9243 116.766L62.9243 114.361L60.3009 114.361L60.3009 116.766L59.2753 116.766Z" fill="white"/>
<path d="M70.1268 113.936C70.1268 114.546 70.0125 115.068 69.784 115.503C69.5573 115.936 69.2477 116.268 68.8552 116.498C68.4645 116.729 68.0213 116.844 67.5255 116.844C67.0298 116.844 66.5856 116.729 66.1931 116.498C65.8024 116.266 65.4928 115.933 65.2643 115.5C65.0376 115.065 64.9243 114.544 64.9243 113.936C64.9243 113.326 65.0376 112.804 65.2643 112.371C65.4928 111.936 65.8024 111.604 66.1931 111.373C66.5856 111.143 67.0298 111.028 67.5255 111.028C68.0213 111.028 68.4645 111.143 68.8552 111.373C69.2477 111.604 69.5573 111.936 69.784 112.371C70.0125 112.804 70.1268 113.326 70.1268 113.936ZM69.0957 113.936C69.0957 113.506 69.0284 113.144 68.8939 112.849C68.7612 112.553 68.5769 112.329 68.341 112.178C68.1051 112.025 67.8333 111.948 67.5255 111.948C67.2178 111.948 66.9459 112.025 66.71 112.178C66.4741 112.329 66.2889 112.553 66.1544 112.849C66.0217 113.144 65.9554 113.506 65.9554 113.936C65.9554 114.365 66.0217 114.728 66.1544 115.025C66.2889 115.32 66.4741 115.544 66.71 115.697C66.9459 115.848 67.2178 115.923 67.5255 115.923C67.8333 115.923 68.1051 115.848 68.341 115.697C68.5769 115.544 68.7612 115.32 68.8939 115.025C69.0284 114.728 69.0957 114.365 69.0957 113.936Z" fill="white"/>
<path d="M74.6652 111.105L75.6907 111.105L75.6907 114.804C75.6907 115.209 75.5949 115.566 75.4032 115.874C75.2134 116.181 74.9462 116.422 74.6016 116.595C74.257 116.766 73.8543 116.852 73.3936 116.852C72.931 116.852 72.5274 116.766 72.1828 116.595C71.8382 116.422 71.5709 116.181 71.3811 115.874C71.1913 115.566 71.0964 115.209 71.0964 114.804L71.0964 111.105L72.122 111.105L72.122 114.718C72.122 114.954 72.1736 115.164 72.2768 115.348C72.3818 115.533 72.5292 115.677 72.7191 115.782C72.9089 115.886 73.1337 115.937 73.3936 115.937C73.6534 115.937 73.8782 115.886 74.0681 115.782C74.2597 115.677 74.4072 115.533 74.5104 115.348C74.6136 115.164 74.6652 114.954 74.6652 114.718L74.6652 111.105Z" fill="white"/>
<path d="M76.8055 116.766L76.8055 111.105L77.831 111.105L77.831 115.907L80.3245 115.907L80.3245 116.766L76.8055 116.766Z" fill="white"/>
<path d="M83.1331 116.766L81.2146 116.766L81.2146 111.105L83.1718 111.105C83.7339 111.105 84.2167 111.218 84.6203 111.445C85.0257 111.67 85.3372 111.993 85.5547 112.415C85.7721 112.837 85.8809 113.342 85.8809 113.93C85.8809 114.52 85.7712 115.027 85.5519 115.451C85.3344 115.875 85.0202 116.2 84.6093 116.426C84.2001 116.653 83.7081 116.766 83.1331 116.766ZM82.2402 115.879L83.0833 115.879C83.4777 115.879 83.8067 115.807 84.0702 115.663C84.3337 115.518 84.5318 115.301 84.6645 115.014C84.7972 114.725 84.8636 114.363 84.8636 113.93C84.8636 113.497 84.7972 113.138 84.6645 112.852C84.5318 112.565 84.3356 112.35 84.0757 112.208C83.8177 112.064 83.4971 111.992 83.1137 111.992L82.2402 111.992L82.2402 115.879Z" fill="white"/>
<path d="M88.7862 116.766L88.7862 111.105L90.9534 111.105C91.3626 111.105 91.7026 111.17 91.9735 111.299C92.2463 111.426 92.4499 111.6 92.5844 111.821C92.7208 112.042 92.789 112.293 92.789 112.573C92.789 112.803 92.7447 113 92.6563 113.165C92.5678 113.327 92.449 113.458 92.2997 113.56C92.1504 113.661 91.9836 113.734 91.7993 113.778L91.7993 113.833C92.0002 113.845 92.1928 113.906 92.3771 114.019C92.5632 114.129 92.7153 114.286 92.8332 114.489C92.9512 114.691 93.0101 114.936 93.0101 115.224C93.0101 115.517 92.9392 115.781 92.7973 116.015C92.6554 116.247 92.4416 116.43 92.1559 116.565C91.8703 116.699 91.5109 116.766 91.0778 116.766L88.7862 116.766ZM89.8118 115.91L90.9147 115.91C91.287 115.91 91.5552 115.839 91.7192 115.697C91.885 115.553 91.968 115.369 91.968 115.144C91.968 114.976 91.9265 114.825 91.8436 114.69C91.7606 114.554 91.6427 114.447 91.4897 114.37C91.3368 114.291 91.1543 114.251 90.9424 114.251L89.8118 114.251L89.8118 115.91ZM89.8118 113.513L90.8263 113.513C91.0032 113.513 91.1626 113.481 91.3045 113.416C91.4464 113.35 91.5579 113.257 91.639 113.137C91.7219 113.015 91.7634 112.871 91.7634 112.706C91.7634 112.486 91.686 112.306 91.5312 112.164C91.3782 112.022 91.1506 111.951 90.8484 111.951L89.8118 111.951L89.8118 113.513Z" fill="white"/>
<path d="M93.9023 116.766L93.9023 111.105L97.5845 111.105L97.5844 111.965L94.9279 111.965L94.9279 113.502L97.3937 113.502L97.3937 114.361L94.9279 114.361L94.9279 115.907L97.6066 115.907L97.6066 116.766L93.9023 116.766Z" fill="white"/>
</svg>
