<svg width="132" height="132" viewBox="0 0 132 132" fill="none" xmlns="http://www.w3.org/2000/svg">
<circle cx="66" cy="66" r="66" fill="white"/>
<circle cx="66.0002" cy="66" r="54.8869" stroke="#0B0B0B"/>
<path d="M37.2539 54.3995L35.9283 39.0193L45.7812 38.1701L45.9825 40.5057L38.9157 41.1147L39.2756 45.2902L45.6665 44.7394L45.8678 47.075L39.4769 47.6258L40.04 54.1593L37.2539 54.3995Z" fill="#0B0B0B"/>
<path d="M51.1057 37.7112L52.4313 53.0914L49.6451 53.3315L48.3195 37.9513L51.1057 37.7112Z" fill="#0B0B0B"/>
<path d="M55.4484 52.8313L54.1228 37.4512L59.8903 36.9541C61.0719 36.8522 62.0809 36.9721 62.9173 37.3135C63.7587 37.6546 64.4167 38.1779 64.8911 38.8835C65.37 39.5837 65.6518 40.4244 65.7364 41.4057C65.8214 42.392 65.6849 43.2662 65.3269 44.0284C64.9735 44.7852 64.4083 45.3963 63.6314 45.8617C62.854 46.3221 61.8745 46.6032 60.6929 46.7051L56.585 47.0591L56.3857 44.7461L60.1181 44.4244C60.809 44.3649 61.3665 44.221 61.7907 43.9927C62.2145 43.7595 62.5155 43.4486 62.6938 43.06C62.8768 42.6659 62.9447 42.1961 62.8977 41.6503C62.8506 41.1046 62.7029 40.6483 62.4544 40.2813C62.2054 39.9094 61.852 39.6423 61.3942 39.48C60.9359 39.3127 60.3588 39.259 59.6629 39.319L57.1096 39.5391L58.2345 52.5912L55.4484 52.8313ZM62.7931 45.1774L67.2013 51.8184L64.0922 52.0863L59.7516 45.4395L62.7931 45.1774Z" fill="#0B0B0B"/>
<path d="M76.5999 39.7733C76.4733 39.1235 76.1339 38.6383 75.5817 38.3177C75.0345 37.9967 74.3479 37.8718 73.5218 37.943C72.9411 37.993 72.4505 38.1236 72.05 38.3346C71.6496 38.5456 71.3522 38.8109 71.1578 39.1302C70.9634 39.4496 70.8803 39.8023 70.9085 40.1882C70.9361 40.5086 71.0327 40.7802 71.1981 41.003C71.3686 41.2254 71.5886 41.4082 71.8582 41.5514C72.1273 41.6896 72.4219 41.8004 72.7418 41.8838C73.0617 41.9672 73.3826 42.0328 73.7044 42.0807L75.1774 42.3169C75.7698 42.4021 76.3438 42.5367 76.8993 42.7208C77.4599 42.9045 77.9681 43.1533 78.4238 43.467C78.8846 43.7804 79.2615 44.1741 79.5546 44.6482C79.8476 45.1223 80.0228 45.6922 80.0802 46.3581C80.1579 47.2593 79.996 48.0727 79.5945 48.7983C79.1926 49.5189 78.5727 50.1095 77.7347 50.57C76.9014 51.0252 75.8689 51.3058 74.6373 51.412C73.4407 51.5151 72.3859 51.4194 71.4728 51.1249C70.5647 50.8299 69.8322 50.3483 69.2753 49.6801C68.7234 49.0115 68.3834 48.1682 68.2553 47.1503L70.9964 46.914C71.0826 47.4463 71.2863 47.8776 71.6073 48.2081C71.9283 48.5385 72.3292 48.7713 72.8099 48.9064C73.2956 49.0411 73.8288 49.0834 74.4096 49.0333C75.0154 48.9811 75.5383 48.8452 75.9784 48.6257C76.423 48.4008 76.7615 48.1144 76.9938 47.7665C77.2256 47.4137 77.3251 47.0167 77.2921 46.5757C77.2526 46.1756 77.1065 45.8553 76.8537 45.6148C76.6006 45.3693 76.2586 45.1769 75.828 45.0375C75.4019 44.8926 74.9075 44.7738 74.3447 44.6811L72.556 44.3813C71.2613 44.1651 70.2175 43.7582 69.4246 43.1608C68.6363 42.5579 68.1946 41.7058 68.0997 40.6043C68.0216 39.6981 68.1985 38.8834 68.6305 38.1603C69.0674 37.4366 69.6953 36.8504 70.514 36.4016C71.3324 35.9477 72.2797 35.6744 73.3561 35.5816C74.4476 35.4876 75.4202 35.5954 76.2741 35.9051C77.1325 36.2094 77.826 36.6767 78.3544 37.307C78.8824 37.9323 79.1913 38.6774 79.2809 39.5423L76.5999 39.7733Z" fill="#0B0B0B"/>
<path d="M81.1361 37.4758L80.9348 35.1403L93.2059 34.0826L93.4072 36.4182L88.6535 36.8279L89.7777 49.8725L87.0141 50.1107L85.8898 37.0661L81.1361 37.4758Z" fill="#0B0B0B"/>
<path d="M27.9383 79.1703L24.9644 79.4266L29.0534 63.5798L32.4929 63.2833L39.2406 78.1962L36.2667 78.4525L31.105 66.5805L30.9849 66.5909L27.9383 79.1703ZM27.5161 73.1315L35.6268 72.4324L35.8196 74.6704L27.709 75.3694L27.5161 73.1315Z" fill="#0B0B0B"/>
<path d="M52.83 66.7584L50.0213 67.0004C49.9015 66.5467 49.7186 66.1514 49.4727 65.8145C49.2263 65.4726 48.9322 65.1903 48.5902 64.9676C48.2482 64.7449 47.8665 64.5886 47.4452 64.4988C47.0284 64.4036 46.5848 64.3763 46.1141 64.4168C45.278 64.4889 44.5552 64.763 43.9456 65.2393C43.3356 65.7105 42.8825 66.3649 42.5865 67.2024C42.2901 68.035 42.1917 69.0295 42.2914 70.186C42.3928 71.3626 42.661 72.3381 43.0959 73.1127C43.5355 73.8818 44.0933 74.444 44.7696 74.7993C45.4504 75.1492 46.2063 75.2883 47.0374 75.2167C47.498 75.177 47.9234 75.0798 48.3135 74.9251C48.7083 74.765 49.0555 74.5509 49.3552 74.283C49.6599 74.0147 49.9073 73.6958 50.0974 73.3263C50.2925 72.9564 50.4132 72.5425 50.4595 72.0846L53.2694 71.8575C53.2273 72.5976 53.0586 73.3031 52.7634 73.9741C52.4732 74.6448 52.0688 75.2495 51.5504 75.7885C51.0315 76.3225 50.4085 76.7595 49.6812 77.0996C48.9535 77.4347 48.1316 77.6417 47.2154 77.7207C45.8636 77.8372 44.6301 77.6283 43.5147 77.0939C42.3994 76.5596 41.4854 75.728 40.7728 74.5991C40.0601 73.4701 39.6326 72.0796 39.4902 70.4274C39.3474 68.7703 39.5332 67.3269 40.0476 66.0973C40.5616 64.8626 41.3223 63.8867 42.3297 63.1694C43.3372 62.4521 44.5118 62.0356 45.8535 61.92C46.7097 61.8462 47.5161 61.8977 48.2727 62.0746C49.0294 62.2515 49.7157 62.5479 50.3316 62.9639C50.947 63.3749 51.4689 63.8998 51.8972 64.5388C52.3301 65.1723 52.641 65.9122 52.83 66.7584Z" fill="#0B0B0B"/>
<path d="M68.5462 65.4038L65.7375 65.6459C65.6177 65.1922 65.4348 64.7969 65.1889 64.46C64.9426 64.118 64.6484 63.8357 64.3064 63.613C63.9644 63.3903 63.5827 63.2341 63.1614 63.1443C62.7447 63.0491 62.301 63.0217 61.8304 63.0623C60.9943 63.1344 60.2714 63.4085 59.6618 63.8847C59.0518 64.3559 58.5988 65.0103 58.3028 65.8479C58.0063 66.6804 57.9079 67.6749 58.0076 68.8315C58.109 70.008 58.3772 70.9836 58.8122 71.7581C59.2517 72.5272 59.8096 73.0894 60.4858 73.4447C61.1666 73.7946 61.9225 73.9337 62.7536 73.8621C63.2142 73.8224 63.6396 73.7252 64.0298 73.5705C64.4245 73.4104 64.7717 73.1964 65.0715 72.9285C65.3762 72.6601 65.6236 72.3412 65.8137 71.9717C66.0087 71.6019 66.1294 71.188 66.1757 70.73L68.9857 70.503C68.9435 71.243 68.7749 71.9485 68.4796 72.6196C68.1894 73.2902 67.7851 73.895 67.2666 74.434C66.7478 74.9679 66.1247 75.405 65.3974 75.745C64.6698 76.0801 63.8478 76.2871 62.9316 76.3661C61.5798 76.4826 60.3463 76.2737 59.231 75.7394C58.1156 75.205 57.2016 74.3734 56.489 73.2445C55.7764 72.1156 55.3489 70.7251 55.2065 69.0729C55.0636 67.4157 55.2494 65.9723 55.7638 64.7427C56.2778 63.5081 57.0385 62.5321 58.046 61.8148C59.0534 61.0975 60.228 60.681 61.5698 60.5654C62.4259 60.4916 63.2323 60.5432 63.989 60.72C64.7456 60.8969 65.4319 61.1934 66.0478 61.6093C66.6633 62.0203 67.1851 62.5453 67.6135 63.1842C68.0463 63.8177 68.3573 64.5576 68.5462 65.4038Z" fill="#0B0B0B"/>
<path d="M71.976 75.3748L70.6504 59.9946L80.6535 59.1324L80.8548 61.468L73.6379 62.09L73.9977 66.2655L80.6965 65.6881L80.8978 68.0237L74.199 68.6011L74.5608 72.7991L81.8379 72.1719L82.0392 74.5074L71.976 75.3748Z" fill="#0B0B0B"/>
<path d="M92.2189 62.3951C92.0922 61.7453 91.7528 61.2601 91.2007 60.9395C90.6535 60.6184 89.9669 60.4935 89.1408 60.5647C88.56 60.6148 88.0694 60.7453 87.669 60.9564C87.2685 61.1674 86.9711 61.4326 86.7767 61.752C86.5823 62.0714 86.4992 62.424 86.5274 62.81C86.555 63.1304 86.6516 63.402 86.8171 63.6248C86.9875 63.8472 87.2076 64.0299 87.4771 64.1732C87.7463 64.3114 88.0408 64.4221 88.3607 64.5055C88.6806 64.5889 89.0015 64.6546 89.3234 64.7025L90.7963 64.9387C91.3888 65.0238 91.9627 65.1584 92.5183 65.3426C93.0788 65.5263 93.587 65.775 94.0428 66.0888C94.5035 66.4021 94.8805 66.7959 95.1735 67.2699C95.4665 67.744 95.6418 68.314 95.6992 68.9799C95.7768 69.881 95.6149 70.6944 95.2134 71.42C94.8115 72.1406 94.1916 72.7312 93.3537 73.1918C92.5203 73.6469 91.4879 73.9276 90.2562 74.0337C89.0597 74.1369 88.0049 74.0412 87.0918 73.7466C86.1837 73.4517 85.4512 72.9701 84.8943 72.3018C84.3423 71.6332 84.0023 70.7899 83.8743 69.7721L86.6154 69.5358C86.7016 70.0681 86.9052 70.4994 87.2262 70.8298C87.5472 71.1603 87.9481 71.393 88.4288 71.5281C88.9145 71.6628 89.4478 71.7051 90.0285 71.6551C90.6343 71.6029 91.1573 71.467 91.5973 71.2475C92.042 71.0225 92.3804 70.7361 92.6127 70.3883C92.8446 70.0354 92.944 69.6385 92.9111 69.1975C92.8715 68.7974 92.7254 68.4771 92.4727 68.2366C92.2195 67.9911 91.8776 67.7986 91.4469 67.6592C91.0209 67.5144 90.5264 67.3956 89.9636 67.3029L88.175 67.0031C86.8803 66.7868 85.8365 66.38 85.0435 65.7825C84.2552 65.1797 83.8135 64.3275 83.7186 63.2261C83.6405 62.3199 83.8174 61.5052 84.2494 60.782C84.6864 60.0584 85.3142 59.4722 86.133 59.0233C86.9513 58.5695 87.8987 58.2962 88.9751 58.2034C90.0665 58.1093 91.0392 58.2171 91.893 58.5269C92.7515 58.8312 93.4449 59.2985 93.9734 59.9288C94.5014 60.5541 94.8102 61.2992 94.8999 62.164L92.2189 62.3951Z" fill="#0B0B0B"/>
<path d="M105.952 61.2114C105.826 60.5616 105.486 60.0764 104.934 59.7558C104.387 59.4347 103.7 59.3098 102.874 59.381C102.294 59.4311 101.803 59.5616 101.403 59.7727C101.002 59.9837 100.705 60.2489 100.51 60.5683C100.316 60.8877 100.233 61.2404 100.261 61.6263C100.289 61.9467 100.385 62.2183 100.551 62.4411C100.721 62.6635 100.941 62.8463 101.211 62.9895C101.48 63.1277 101.774 63.2385 102.094 63.3219C102.414 63.4053 102.735 63.4709 103.057 63.5188L104.53 63.755C105.122 63.8401 105.696 63.9748 106.252 64.1589C106.812 64.3426 107.321 64.5913 107.776 64.9051C108.237 65.2185 108.614 65.6122 108.907 66.0863C109.2 66.5603 109.375 67.1303 109.433 67.7962C109.51 68.6974 109.349 69.5107 108.947 70.2363C108.545 70.9569 107.925 71.5475 107.087 72.0081C106.254 72.4633 105.221 72.7439 103.99 72.8501C102.793 72.9532 101.738 72.8575 100.825 72.563C99.9173 72.268 99.1848 71.7864 98.6279 71.1182C98.076 70.4495 97.736 69.6063 97.6079 68.5884L100.349 68.3521C100.435 68.8844 100.639 69.3157 100.96 69.6462C101.281 69.9766 101.682 70.2094 102.162 70.3445C102.648 70.4791 103.181 70.5214 103.762 70.4714C104.368 70.4192 104.891 70.2833 105.331 70.0638C105.776 69.8389 106.114 69.5525 106.346 69.2046C106.578 68.8517 106.678 68.4548 106.645 68.0138C106.605 67.6137 106.459 67.2934 106.206 67.0529C105.953 66.8074 105.611 66.6149 105.181 66.4755C104.754 66.3307 104.26 66.2119 103.697 66.1192L101.909 65.8194C100.614 65.6031 99.5701 65.1963 98.7772 64.5989C97.9888 63.996 97.5472 63.1438 97.4522 62.0424C97.3741 61.1362 97.5511 60.3215 97.983 59.5983C98.42 58.8747 99.0479 58.2885 99.8666 57.8396C100.685 57.3858 101.632 57.1125 102.709 57.0197C103.8 56.9256 104.773 57.0335 105.627 57.3432C106.485 57.6475 107.179 58.1148 107.707 58.7451C108.235 59.3704 108.544 60.1155 108.634 60.9803L105.952 61.2114Z" fill="#0B0B0B"/>
<g clip-path="url(#clip0_297_2029)">
<path d="M57.4054 89.297C58.1868 88.1808 59.2233 87.2671 60.4287 86.6318C61.634 85.9965 62.9736 85.6579 64.3361 85.644C65.6986 85.6302 67.0447 85.9416 68.2627 86.5524C69.4807 87.1631 70.5355 88.0556 71.3394 89.1557L80.2723 87.5749C80.4442 87.5443 80.6211 87.5833 80.7643 87.6832L84.3624 90.1988C84.5055 90.2989 84.603 90.4517 84.6335 90.6237C84.6639 90.7957 84.6248 90.9727 84.5247 91.1158L82.0092 94.7139C81.9091 94.857 81.7562 94.9545 81.5843 94.985C81.4123 95.0154 81.2353 94.9763 81.0921 94.8762L79.473 93.7442L78.341 95.3633C78.2409 95.5065 78.0881 95.604 77.9161 95.6344C77.7441 95.6649 77.5671 95.6258 77.424 95.5257L75.8049 94.3937L74.6729 96.0128C74.5727 96.1558 74.4198 96.2532 74.2479 96.2835L72.6516 96.5669C72.3076 97.7612 71.7076 98.8662 70.8935 99.8052C70.0793 100.744 69.0705 101.495 67.937 102.004C66.8036 102.514 65.5727 102.771 64.33 102.757C63.0873 102.743 61.8625 102.459 60.7407 101.924C59.6189 101.389 58.627 100.617 57.8339 99.6598C57.0409 98.7029 56.4657 97.5848 56.1483 96.3832C55.8309 95.1816 55.779 93.9253 55.996 92.7016C56.2131 91.4779 56.6941 90.3161 57.4054 89.297ZM70.3583 98.3531C70.8858 97.6014 71.2647 96.7558 71.4746 95.8619C71.5008 95.7322 71.5655 95.6134 71.6602 95.521C71.7549 95.4286 71.8752 95.3669 72.0055 95.3438L73.75 95.0342L75.1028 93.0993C75.2029 92.9562 75.3557 92.8587 75.5277 92.8282C75.6997 92.7978 75.8767 92.8369 76.0198 92.937L77.6389 94.069L78.7709 92.4499C78.871 92.3067 79.0239 92.2092 79.1958 92.1787C79.3678 92.1483 79.5448 92.1874 79.688 92.2875L81.3071 93.4195L83.068 90.9009L80.2336 88.9192L71.1525 90.5263C71.0223 90.5495 70.888 90.5328 70.7674 90.4785C70.6467 90.4243 70.5452 90.3349 70.476 90.2221C69.6248 88.927 68.3807 87.9391 66.9264 87.4034C65.4721 86.8677 63.8844 86.8126 62.3965 87.2461C60.9086 87.6796 59.5989 88.5789 58.6599 89.8118C57.7209 91.0447 57.202 92.5463 57.1796 94.0959C57.1572 95.6455 57.6323 97.1615 58.5352 98.4211C59.4381 99.6807 60.7212 100.617 62.196 101.094C63.6707 101.57 65.2594 101.561 66.7285 101.068C68.1977 100.574 69.4699 99.623 70.3583 98.3531ZM60.7359 95.6431C60.9138 95.7675 61.1246 95.8363 61.3416 95.8409C61.5586 95.8455 61.7721 95.7856 61.9551 95.6689C62.1381 95.5521 62.2824 95.3837 62.3697 95.1849C62.4569 94.9862 62.4833 94.766 62.4455 94.5523C62.4076 94.3385 62.3073 94.1408 62.157 93.9841C62.0068 93.8274 61.8135 93.7187 61.6015 93.6719C61.3896 93.6251 61.1685 93.6422 60.9662 93.721C60.764 93.7998 60.5896 93.9368 60.4652 94.1147C60.2984 94.3533 60.2333 94.6483 60.284 94.935C60.3348 95.2216 60.4973 95.4763 60.7359 95.6431Z" fill="black"/>
</g>
<defs>
<clipPath id="clip0_297_2029">
<rect width="28.0973" height="28.0973" fill="white" transform="matrix(-0.572995 0.819559 0.819559 0.572995 65.8486 73.7729)"/>
</clipPath>
</defs>
</svg>
