<svg width="198" height="155" viewBox="0 0 198 155" fill="none" xmlns="http://www.w3.org/2000/svg">
<ellipse cx="98.8666" cy="77.438" rx="90.1627" ry="63.431" transform="rotate(-8.87182 98.8666 77.438)" fill="white"/>
<path d="M173.131 65.8458C175.377 80.2293 169.166 94.5876 157.211 106.18C145.257 117.77 127.589 126.559 107.035 129.768C86.4806 132.976 66.9742 129.99 52.0565 122.593C37.1373 115.196 26.8468 103.414 24.6017 89.0301C22.3565 74.6466 28.5666 60.2883 40.5217 48.6964C52.4757 37.1055 70.1441 28.3167 90.6983 25.1083C111.252 21.9 130.759 24.8862 145.677 32.2825C160.596 39.6796 170.886 51.4623 173.131 65.8458Z" stroke="#0B0B0B"/>
<path d="M83.5814 109.186L81.7668 109.47L83.6057 99.5699L85.7043 99.2423L90.4774 108.11L88.6629 108.393L84.9921 101.325L84.9188 101.336L83.5814 109.186ZM83.0666 105.498L88.0152 104.725L88.2284 106.091L83.2797 106.863L83.0666 105.498Z" fill="#0B0B0B"/>
<path d="M91.9486 98.2676L93.4134 107.652L91.7134 107.917L90.2486 98.533L91.9486 98.2676Z" fill="#0B0B0B"/>
<path d="M99.292 99.764C99.1867 99.3705 98.9579 99.087 98.6054 98.9136C98.2559 98.7397 97.8292 98.6921 97.3252 98.7708C96.9708 98.8261 96.6752 98.927 96.4384 99.0735C96.2015 99.22 96.0302 99.3954 95.9244 99.5996C95.8186 99.8039 95.7825 100.024 95.8162 100.26C95.8467 100.455 95.9174 100.618 96.0284 100.747C96.1425 100.877 96.2853 100.98 96.4568 101.056C96.6279 101.13 96.8133 101.185 97.0132 101.223C97.2131 101.26 97.4128 101.287 97.6124 101.303L98.5265 101.385C98.8937 101.413 99.2518 101.471 99.6005 101.56C99.9524 101.649 100.275 101.781 100.568 101.954C100.864 102.127 101.112 102.352 101.312 102.631C101.512 102.91 101.644 103.252 101.707 103.658C101.793 104.208 101.728 104.714 101.512 105.177C101.296 105.636 100.94 106.025 100.446 106.343C99.9534 106.658 99.3315 106.873 98.5801 106.991C97.85 107.105 97.1985 107.091 96.6256 106.949C96.0557 106.806 95.5857 106.541 95.2156 106.155C94.8485 105.768 94.6041 105.265 94.4824 104.645L96.1549 104.384C96.2303 104.707 96.3736 104.963 96.5846 105.153C96.7956 105.342 97.0515 105.468 97.3523 105.53C97.6562 105.592 97.9852 105.596 98.3396 105.54C98.7092 105.483 99.0244 105.377 99.2852 105.224C99.5486 105.067 99.7443 104.877 99.8721 104.653C99.9995 104.427 100.044 104.179 100.005 103.91C99.9636 103.666 99.8604 103.476 99.6951 103.339C99.5293 103.199 99.3113 103.095 99.041 103.028C98.7734 102.957 98.4649 102.905 98.1155 102.872L97.005 102.764C96.2011 102.686 95.5432 102.48 95.0312 102.147C94.5218 101.81 94.2147 101.306 94.1098 100.634C94.0235 100.081 94.0976 99.5734 94.3321 99.1113C94.5696 98.6486 94.9302 98.2622 95.4137 97.9521C95.8968 97.6388 96.4667 97.431 97.1235 97.3285C97.7894 97.2245 98.391 97.2495 98.9282 97.4035C99.468 97.5539 99.9134 97.8114 100.264 98.1759C100.615 98.5374 100.836 98.9816 100.928 99.5086L99.292 99.764Z" fill="#0B0B0B"/>
<path d="M103.869 96.407L105.334 105.791L103.634 106.056L102.169 96.6723L103.869 96.407Z" fill="#0B0B0B"/>
<path d="M110.375 105.004L108.91 95.6201L112.503 95.0593C113.181 94.9535 113.761 94.9724 114.244 95.1161C114.729 95.2564 115.111 95.4923 115.391 95.8241C115.675 96.1554 115.852 96.5532 115.925 97.0175C115.985 97.3993 115.962 97.7376 115.858 98.0324C115.753 98.3241 115.59 98.5733 115.369 98.7799C115.148 98.9865 114.89 99.1503 114.596 99.2713L114.611 99.363C114.947 99.3293 115.282 99.3818 115.616 99.5205C115.953 99.6556 116.246 99.8759 116.494 100.181C116.742 100.487 116.903 100.878 116.977 101.354C117.053 101.84 117.004 102.295 116.829 102.72C116.654 103.142 116.347 103.501 115.908 103.798C115.47 104.095 114.892 104.299 114.174 104.411L110.375 105.004ZM111.853 103.318L113.682 103.033C114.299 102.937 114.725 102.75 114.96 102.472C115.198 102.191 115.287 101.864 115.229 101.491C115.186 101.213 115.078 100.974 114.906 100.772C114.733 100.567 114.51 100.421 114.236 100.332C113.962 100.24 113.65 100.222 113.298 100.277L111.424 100.569L111.853 103.318ZM111.233 99.3457L112.915 99.0832C113.208 99.0374 113.464 98.9427 113.683 98.7991C113.901 98.6524 114.061 98.4693 114.165 98.2498C114.271 98.0267 114.302 97.7777 114.259 97.5028C114.203 97.1393 114.028 96.8599 113.734 96.6648C113.444 96.4691 113.048 96.4104 112.547 96.4886L110.829 96.7568L111.233 99.3457Z" fill="#0B0B0B"/>
<path d="M116.749 94.3965L118.669 94.0968L121.613 97.8898L121.704 97.8755L123.352 93.3658L125.272 93.0662L122.776 99.4824L123.323 102.983L121.628 103.248L121.081 99.747L116.749 94.3965Z" fill="#0B0B0B"/>
<path d="M91.564 114.85L93.4839 114.55L96.4275 118.343L96.5192 118.329L98.1668 113.819L100.087 113.519L97.5914 119.936L98.1378 123.436L96.4424 123.701L95.896 120.2L91.564 114.85Z" fill="#0B0B0B"/>
<path d="M109.879 116.797C110.037 117.808 109.983 118.704 109.716 119.484C109.453 120.26 109.025 120.89 108.434 121.374C107.846 121.857 107.141 122.162 106.32 122.291C105.498 122.419 104.732 122.343 104.022 122.063C103.314 121.779 102.715 121.307 102.224 120.649C101.736 119.986 101.413 119.151 101.256 118.143C101.098 117.132 101.151 116.238 101.414 115.462C101.681 114.682 102.108 114.05 102.696 113.567C103.287 113.084 103.993 112.778 104.815 112.65C105.637 112.522 106.401 112.598 107.108 112.879C107.818 113.159 108.418 113.63 108.906 114.292C109.397 114.951 109.721 115.786 109.879 116.797ZM108.17 117.064C108.059 116.352 107.854 115.769 107.554 115.315C107.258 114.858 106.894 114.534 106.464 114.345C106.034 114.152 105.563 114.096 105.053 114.176C104.543 114.255 104.112 114.452 103.761 114.767C103.409 115.078 103.16 115.498 103.013 116.024C102.87 116.547 102.854 117.165 102.965 117.876C103.076 118.588 103.28 119.173 103.576 119.63C103.876 120.084 104.241 120.407 104.671 120.6C105.101 120.789 105.571 120.844 106.082 120.765C106.592 120.685 107.023 120.489 107.375 120.178C107.726 119.863 107.974 119.445 108.117 118.921C108.263 118.395 108.281 117.776 108.17 117.064Z" fill="#0B0B0B"/>
<path d="M116.669 110.931L118.369 110.666L119.326 116.796C119.431 117.468 119.364 118.084 119.126 118.644C118.891 119.203 118.511 119.671 117.984 120.047C117.457 120.421 116.812 120.667 116.048 120.786C115.282 120.906 114.591 120.868 113.975 120.673C113.359 120.475 112.854 120.146 112.459 119.685C112.065 119.224 111.816 118.657 111.711 117.985L110.754 111.854L112.454 111.589L113.389 117.578C113.45 117.969 113.589 118.304 113.808 118.582C114.03 118.861 114.312 119.062 114.654 119.187C114.995 119.309 115.381 119.337 115.812 119.269C116.242 119.202 116.602 119.058 116.89 118.838C117.18 118.615 117.387 118.337 117.511 118.004C117.634 117.672 117.665 117.311 117.604 116.92L116.669 110.931Z" fill="#0B0B0B"/>
<g clip-path="url(#clip0_276_777)">
<path d="M83.0209 71.5234L81.5739 62.2531M112.156 66.9756L110.709 57.7054M73.1758 43.2152L84.0612 34.7331L99.953 32.2525L112.905 37.0137L121.304 56.0516L111.949 65.6513L114.843 84.1918L85.7082 88.7395L82.8142 70.199L70.9793 63.9068L73.1758 43.2152Z" stroke="black" stroke-width="2" stroke-linecap="round" stroke-linejoin="round"/>
</g>
<path d="M79.9365 57.0647L78.5568 57.28L80.5541 46.0965L82.6009 45.777L87.9115 55.8198L86.5318 56.0352L85.584 54.2418L80.2926 55.0677L79.9365 57.0647ZM81.2159 49.9381L80.5174 53.8212L84.9901 53.123L83.1414 49.6376C82.6119 48.633 82.2917 47.8754 82.0578 47.0732L81.4665 47.1655C81.4881 48.0008 81.4141 48.82 81.2159 49.9381Z" fill="#0B0B0B"/>
<path d="M92.4678 55.3417C90.2391 55.6896 88.76 54.7711 88.4595 52.8456L88.3151 51.9207L89.6342 51.7148L89.7549 52.4881C89.9537 53.7617 90.8883 54.3768 92.2832 54.1591C93.7084 53.9366 94.4429 53.1696 94.2749 52.0932C94.1684 51.4109 93.5104 50.8768 92.5112 50.6445L90.3669 50.1405C88.9323 49.8054 87.9631 48.8695 87.7666 47.611C87.4921 45.8523 88.5896 44.6249 90.7402 44.2737C92.9235 43.9329 94.3722 44.856 94.6727 46.7816L94.8171 47.7064L93.498 47.9123L93.3773 47.1391C93.1785 45.8655 92.2742 45.2456 90.9248 45.4563C89.6384 45.6726 88.975 46.3974 89.1312 47.3981C89.2424 48.1107 89.9203 48.6727 90.9674 48.913L92.9506 49.38C94.4506 49.7361 95.4501 50.6672 95.6394 51.8802C95.9234 53.6996 94.7572 54.9843 92.4678 55.3417Z" fill="#0B0B0B"/>
<path d="M97.0441 54.3943L96.3351 43.6332L97.8512 43.3966L98.5602 54.1576L97.0441 54.3943Z" fill="#0B0B0B"/>
<path d="M104.064 53.5316C101.835 53.8795 100.356 52.9611 100.056 51.0355L99.9113 50.1107L101.23 49.9048L101.351 50.678C101.55 51.9516 102.485 52.5667 103.879 52.349C105.305 52.1265 106.039 51.3596 105.871 50.2831C105.765 49.6008 105.107 49.0668 104.107 48.8345L101.963 48.3305C100.528 47.9953 99.5593 47.0594 99.3628 45.801C99.0883 44.0422 100.186 42.8148 102.336 42.4636C104.52 42.1228 105.968 43.046 106.269 44.9715L106.413 45.8964L105.094 46.1023L104.974 45.329C104.775 44.0554 103.87 43.4356 102.521 43.6462C101.235 43.8625 100.571 44.5873 100.727 45.588C100.839 46.3006 101.517 46.8626 102.564 47.103L104.547 47.57C106.047 47.926 107.046 48.8572 107.236 50.0701C107.52 51.8895 106.353 53.1743 104.064 53.5316Z" fill="#0B0B0B"/>
<defs>
<clipPath id="clip0_276_777">
<rect width="64.3372" height="64.3372" fill="white" transform="translate(59.3965 33.1567) rotate(-8.87182)"/>
</clipPath>
</defs>
</svg>
