<svg width="16" height="16" viewBox="0 0 16 16" fill="none" xmlns="http://www.w3.org/2000/svg">
<g clip-path="url(#clip0_316_136)">
<path d="M1.77778 2.22217C1.30628 2.22217 0.854097 2.40947 0.520699 2.74287C0.187301 3.07626 0 3.52845 0 3.99995L0 11.9999C0 12.4714 0.187301 12.9236 0.520699 13.257C0.854097 13.5904 1.30628 13.7777 1.77778 13.7777H5.33333V2.22217H1.77778Z" fill="#009A49"/>
<path d="M5.33325 2.22217H10.6666V13.7777H5.33325V2.22217Z" fill="#EEEEEE"/>
<path d="M14.2223 2.22217H10.6667V13.7777H14.2223C14.6938 13.7777 15.146 13.5904 15.4794 13.257C15.8128 12.9236 16.0001 12.4714 16.0001 11.9999V3.99995C16.0001 3.52845 15.8128 3.07626 15.4794 2.74287C15.146 2.40947 14.6938 2.22217 14.2223 2.22217Z" fill="#009A49"/>
</g>
<defs>
<clipPath id="clip0_316_136">
<rect width="16" height="16" fill="white"/>
</clipPath>
</defs>
</svg>
