<svg width="64" height="30" viewBox="0 0 64 30" fill="none" xmlns="http://www.w3.org/2000/svg">
<path d="M3.72379 29.8722H0L9.86189 1.22766H15.3862L25.2481 29.8722H21.5243L19.7647 24.7571H5.48338L3.72379 29.8722ZM10.0256 11.6215L6.58824 21.5653H18.6598L15.2225 11.6215C14.2404 8.75707 13.7084 6.6292 13.422 4.41948H11.8261C11.5396 6.6292 11.0077 8.75707 10.0256 11.6215Z" fill="#0B0B0B"/>
<path d="M27.2939 29.8722L29.8515 1.22766H33.9436L31.386 29.8722H27.2939Z" fill="#0B0B0B"/>
<path d="M45.5243 29.8721C39.5089 29.8721 35.9897 26.844 35.9897 21.6471V19.1509H39.5498V21.2379C39.5498 24.6752 41.7596 26.6803 45.5243 26.6803C49.3708 26.6803 51.6215 24.9616 51.6215 22.0563C51.6215 20.2148 50.1074 18.5371 47.5703 17.5141L42.1279 15.3043C38.4859 13.8312 36.3171 10.9668 36.3171 7.57033C36.3171 2.82353 39.7135 0.0409202 45.5243 0C51.4169 0 54.8542 3.02813 54.8542 8.22506V10.7212H51.2941V8.63427C51.2941 5.19693 49.1662 3.19182 45.5243 3.19182C42.046 3.23274 40 4.86957 40 7.57033C40 9.49361 41.555 11.2532 44.2148 12.3171L49.2481 14.3632C53.0537 15.9182 55.3043 18.7826 55.3043 22.0563C55.3043 26.9668 51.7033 29.8721 45.5243 29.8721Z" fill="#0B0B0B"/>
<path d="M57.3506 29.8722L59.9081 1.22766H64.0002L61.4427 29.8722H57.3506Z" fill="#0B0B0B"/>
</svg>
