<svg width="16" height="16" viewBox="0 0 16 16" fill="none" xmlns="http://www.w3.org/2000/svg">
<path d="M7.99992 1.33325C6.68138 1.33325 5.39245 1.72425 4.29612 2.45679C3.19979 3.18933 2.34531 4.23052 1.84072 5.4487C1.33614 6.66687 1.20412 8.00731 1.46135 9.30052C1.71859 10.5937 2.35353 11.7816 3.28588 12.714C4.21823 13.6463 5.40611 14.2813 6.69932 14.5385C7.99253 14.7957 9.33297 14.6637 10.5511 14.1591C11.7693 13.6545 12.8105 12.8 13.5431 11.7037C14.2756 10.6074 14.6666 9.31846 14.6666 7.99992C14.6666 7.12444 14.4942 6.25753 14.1591 5.4487C13.8241 4.63986 13.333 3.90493 12.714 3.28587C12.0949 2.66682 11.36 2.17575 10.5511 1.84072C9.74231 1.50569 8.8754 1.33325 7.99992 1.33325ZM6.85925 13.1953C6.13219 13.0292 5.44811 12.7122 4.8513 12.265C4.2545 11.8177 3.75829 11.2501 3.39478 10.5989C3.03128 9.94769 2.8086 9.22739 2.74115 8.48465C2.67371 7.74191 2.763 6.99329 3.00326 6.28725L3.17125 6.30059C3.52666 6.47012 3.84123 6.71444 4.09345 7.01683C4.34567 7.31922 4.52958 7.67253 4.63259 8.05259C4.74338 8.49155 4.95625 8.89815 5.25385 9.23931C5.55146 9.58047 5.9254 9.84656 6.34525 10.0159C7.15059 10.3873 7.31925 11.4286 6.85925 13.1953ZM9.38592 6.99992C9.38586 6.94667 9.37937 6.89361 9.36659 6.84192C9.24594 6.29535 9.00672 5.78194 8.66586 5.33797C8.32499 4.89401 7.89079 4.53031 7.39392 4.27259C6.81059 3.90259 6.44859 3.67259 6.35126 2.94525C7.38918 2.59555 8.50969 2.57434 9.56011 2.88451C10.6105 3.19469 11.5398 3.82116 12.2213 4.67859C11.2479 4.82459 10.7193 6.24859 10.7193 6.99925C10.6481 7.10933 10.5487 7.19831 10.4314 7.25693C10.3142 7.31556 10.1834 7.34168 10.0526 7.33259C9.92188 7.34175 9.7911 7.31573 9.67386 7.25722C9.55662 7.19872 9.45719 7.10987 9.38592 6.99992ZM10.5273 12.6486L10.0559 11.2359C10.0787 10.915 10.2167 10.613 10.4446 10.3859C10.6725 10.1587 10.9749 10.0216 11.2959 9.99992L12.7219 10.4339C12.229 11.3755 11.4644 12.1472 10.5273 12.6486Z" fill="#0B0B0B"/>
</svg>
