<svg width="59" height="23" viewBox="0 0 59 23" fill="none" xmlns="http://www.w3.org/2000/svg">
<path d="M2.79284 21.9438H0L7.39642 0.460449H11.5396L18.9361 21.9438H16.1432L14.8235 18.1075H4.11253L2.79284 21.9438ZM7.51918 8.25585L4.94118 15.7136H13.9949L11.4169 8.25585C10.6803 6.10751 10.2813 4.5116 10.0665 2.85431H8.86957C8.65473 4.5116 8.25575 6.10751 7.51918 8.25585Z" fill="#0B0B0B"/>
<path d="M28.0869 22.4041C23.5754 22.4041 20.936 20.133 20.936 16.2353V14.3632H23.6061V15.9284C23.6061 18.5064 25.2634 20.0102 28.0869 20.0102C30.9718 20.0102 32.6598 18.7212 32.6598 16.5422C32.6598 15.1611 31.5243 13.9028 29.6215 13.1355L25.5396 11.4783C22.8082 10.3734 21.1816 8.22506 21.1816 5.67775C21.1816 2.11765 23.7289 0.0306901 28.0869 0C32.5064 0 35.0844 2.2711 35.0844 6.1688V8.04092H32.4143V6.4757C32.4143 3.8977 30.8184 2.39386 28.0869 2.39386C25.4782 2.42455 23.9437 3.65217 23.9437 5.67775C23.9437 7.1202 25.1099 8.4399 27.1048 9.23785L30.8798 10.7724C33.734 11.9386 35.422 14.087 35.422 16.5422C35.422 20.2251 32.7212 22.4041 28.0869 22.4041Z" fill="#0B0B0B"/>
<path d="M37.4219 21.9438L39.34 0.460449H42.4091L40.4909 21.9438H37.4219Z" fill="#0B0B0B"/>
<path d="M51.5601 22.4041C47.0486 22.4041 44.4092 20.133 44.4092 16.2353V14.3632H47.0793V15.9284C47.0793 18.5064 48.7365 20.0102 51.5601 20.0102C54.445 20.0102 56.133 18.7212 56.133 16.5422C56.133 15.1611 54.9974 13.9028 53.0946 13.1355L49.0128 11.4783C46.2813 10.3734 44.6547 8.22506 44.6547 5.67775C44.6547 2.11765 47.202 0.0306901 51.5601 0C55.9795 0 58.5575 2.2711 58.5575 6.1688V8.04092H55.8874V6.4757C55.8874 3.8977 54.2915 2.39386 51.5601 2.39386C48.9514 2.42455 47.4169 3.65217 47.4169 5.67775C47.4169 7.1202 48.5831 8.4399 50.578 9.23785L54.3529 10.7724C57.2071 11.9386 58.8951 14.087 58.8951 16.5422C58.8951 20.2251 56.1943 22.4041 51.5601 22.4041Z" fill="#0B0B0B"/>
</svg>
