<svg width="115" height="50" viewBox="0 0 115 50" fill="none" xmlns="http://www.w3.org/2000/svg">
<path d="M6.69118 50H0L17.7206 2.05481H27.6471L45.3676 50H38.6765L35.5147 41.4384H9.85294L6.69118 50ZM18.0147 19.4521L11.8382 36.0959H33.5294L27.3529 19.4521C25.5882 14.6575 24.6324 11.0959 24.1176 7.39728H21.25C20.7353 11.0959 19.7794 14.6575 18.0147 19.4521Z" fill="#FFFEF5"/>
<path d="M49.0439 50L53.6395 2.05481H60.9925L56.3969 50H49.0439Z" fill="#FFFEF5"/>
<path d="M81.8013 50C70.9925 50 64.6689 44.9315 64.6689 36.2329V32.0548H71.066V35.5479C71.066 41.3014 75.0366 44.6575 81.8013 44.6575C88.7131 44.6575 92.7572 41.7808 92.7572 36.9178C92.7572 33.8356 90.0366 31.0274 85.4778 29.3151L75.6984 25.6164C69.1542 23.1507 65.2572 18.3562 65.2572 12.6712C65.2572 4.72603 71.3601 0.0684923 81.8013 0C92.3895 0 98.566 5.06849 98.566 13.7671V17.9452H92.1689V14.4521C92.1689 8.69863 88.3454 5.34247 81.8013 5.34247C75.5513 5.41096 71.8748 8.15069 71.8748 12.6712C71.8748 15.8904 74.6689 18.8356 79.4484 20.6164L88.4925 24.0411C95.3307 26.6438 99.3748 31.4384 99.3748 36.9178C99.3748 45.137 92.9042 50 81.8013 50Z" fill="#FFFEF5"/>
<path d="M103.051 50L107.647 2.05481H115L110.404 50H103.051Z" fill="#FFFEF5"/>
</svg>
